<svg xmlns="http://www.w3.org/2000/svg" width="36" height="36" viewBox="0 0 36 36"><path fill="#000" fill-rule="evenodd" d="M 18 0 C 8.0588779 0 6.9135043e-017 8.0588779 0 18 C 0 27.941122 8.0588779 36 18 36 C 27.941122 36 36 27.941122 36 18 C 36 8.0588779 27.941122 6.9135043e-017 18 0 z M 17.59375 12 L 26.6875 12 A 0.50005005 0.50005005 0 0 1 27.1875 12.59375 L 27.1875 19 L 29.375 19.34375 A 0.53027867 0.53111554 0 0 1 29.65625 20.25 L 27.40625 22.34375 L 27.90625 25.375 A 0.53027867 0.53111554 0 0 1 27.125 25.9375 L 24.4375 24.46875 L 21.6875 25.84375 A 0.53027867 0.53111554 0 0 1 20.9375 25.28125 L 21.09375 24.40625 L 8.5 24.40625 A 0.50004999 0.50004999 0 0 1 8 23.90625 L 8 12.53125 A 0.50004999 0.50004999 0 0 1 8 12.5 A 0.50005005 0.50005005 0 0 1 8 12.4375 A 0.50004999 0.50004999 0 0 1 8.0625 12.28125 A 0.50005005 0.50005005 0 0 1 8.09375 12.25 A 0.50004999 0.50004999 0 0 1 8.15625 12.1875 A 0.50004999 0.50004999 0 0 1 8.1875 12.125 A 0.50005005 0.50005005 0 0 1 8.21875 12.09375 A 0.50004999 0.50004999 0 0 1 8.25 12.09375 A 0.50005005 0.50005005 0 0 1 8.5 12.03125 L 17.59375 12 z M 10.25 13.03125 L 17.59375 17.625 L 24.9375 13.03125 L 10.25 13.03125 z M 26.1875 13.40625 L 17.875 18.625 A 0.50005005 0.50005005 0 0 1 17.34375 18.625 L 9 13.4375 L 9 23.40625 L 21.28125 23.40625 L 21.5 22.28125 L 19.34375 20.09375 A 0.53027867 0.53111554 0 0 1 19.625 19.1875 L 22.6875 18.78125 L 24.0625 16.0625 A 0.53027867 0.53111554 0 0 1 24.625 15.78125 A 0.53027867 0.53111554 0 0 1 25.03125 16.0625 L 26.1875 18.53125 L 26.1875 13.40625 z M 24.53125 17.5 L 23.5 19.53125 A 0.53027867 0.53111554 0 0 1 23.09375 19.8125 L 20.84375 20.09375 L 22.4375 21.71875 A 0.53027867 0.53111554 0 0 1 22.59375 22.1875 L 22.15625 24.40625 L 24.1875 23.375 A 0.53027867 0.53111554 0 0 1 24.6875 23.40625 L 26.6875 24.5 L 26.34375 22.25 A 0.53027867 0.53111554 0 0 1 26.5 21.78125 L 28.125 20.21875 L 25.90625 19.84375 A 0.53027867 0.53111554 0 0 1 25.5 19.5625 L 24.53125 17.5 z "/></svg>